Coordinates
version=1
nRows=17
nColumns=36
inDegrees=yes

Units are S.I. units (second, meters, Newtons, ...)
If the header above contains a line with 'inDegrees', this indicates whether rotational values are in degrees (yes) or radians (no).

endheader
time	pelvis_tilt	pelvis_list	pelvis_rotation	pelvis_tx	pelvis_ty	pelvis_tz	hip_flexion_r	hip_adduction_r	hip_rotation_r	knee_angle_r	knee_angle_r_beta	ankle_angle_r	subtalar_angle_r	mtp_angle_r	hip_flexion_l	hip_adduction_l	hip_rotation_l	knee_angle_l	knee_angle_l_beta	ankle_angle_l	subtalar_angle_l	mtp_angle_l	lumbar_extension	lumbar_bending	lumbar_rotation	arm_flex_r	arm_add_r	arm_rot_r	elbow_flex_r	pro_sup_r	arm_flex_l	arm_add_l	arm_rot_l	elbow_flex_l	pro_sup_l
      0.00000000	      1.46654659	     -0.46028266	      7.28639444	     -0.18244471	      1.01765082	     -0.21629979	     20.87821743	      0.76681796	     -9.97130575	      0.96365389	      0.01681893	      8.43695121	     10.28745486	     -5.49855745	    -15.10438094	      1.88212385	      7.76029818	     13.32463470	      0.23255875	     22.39755167	      7.10064815	     -5.49855745	     -5.58886508	      1.48269125	    -10.97795456	    -12.36902176	     -6.78710022	     -2.33550725	     26.29720089	     98.30575272	      7.64858607	    -17.82345170	      6.65834932	     63.58328351	     91.46398246
      0.01000000	      2.14427788	     -1.10262434	      7.45083361	     -0.16694282	      1.01779324	     -0.21525862	     19.42444427	      1.77380234	     -9.59943374	      0.69447097	      0.01212080	      7.23879036	      9.94965217	     -5.52378968	    -16.03816732	      0.92757400	      7.47720411	     14.47527215	      0.25264116	     21.85897112	      6.59177332	     -5.52378968	     -6.01039028	      2.28363515	    -11.09039085	    -12.35343825	     -6.88400185	     -2.17737324	     25.80497058	     98.56204031	      7.30747413	    -17.59583614	      6.75815159	     63.28100347	     91.59109086
      0.02000000	      2.43618903	     -1.55653285	      7.37599563	     -0.15176476	      1.01746323	     -0.21389420	     18.55341743	      2.65092954	     -7.70079037	      0.79541729	      0.01388265	      5.46424069	      7.17599601	     -5.62347201	    -16.57075833	      0.33649171	      7.43982611	     15.64914147	      0.27312904	     20.95702164	      5.74853643	     -5.62347201	     -6.07119647	      2.81061887	    -11.06701011	    -12.32720041	     -7.02519505	     -1.81773036	     25.32296373	     99.60873934	      6.80533947	    -17.34232133	      6.54579144	     63.02741399	     92.25212257
      0.03000000	      2.70720689	     -2.03989541	      7.33492796	     -0.13640234	      1.01732707	     -0.21257482	     17.74283564	      3.49709200	     -6.65887985	      0.95613959	      0.01668778	      3.93225219	      5.60935523	     -5.72284121	    -16.92214870	     -0.32131612	      7.08241351	     17.08233777	      0.29814304	     19.90159803	      5.07895704	     -5.72284121	     -6.09078549	      3.37817624	    -11.05761361	    -12.36954576	     -7.10037655	     -1.94848629	     25.06788084	    100.36945464	      6.25686008	    -17.05604734	      6.34467011	     62.68078303	     92.85966126
      0.04000000	      2.96989193	     -2.49711051	      7.27402411	     -0.12095475	      1.01753081	     -0.21117618	     16.92828527	      4.30649852	     -5.74865090	      1.11215479	      0.01941076	      2.30488520	      4.14312459	     -5.81691501	    -17.10672474	     -0.97650005	      6.46757198	     18.75573626	      0.32734935	     18.56089543	      4.61266908	     -5.81691501	     -6.08616296	      3.90709945	    -10.99286973	    -12.42386861	     -7.15860223	     -2.12367871	     24.88777798	    100.91720837	      5.68660980	    -16.75563308	      6.21548888	     62.22800379	     93.36792225
      0.05000000	      3.24360719	     -2.95520482	      7.21502304	     -0.10532060	      1.01808921	     -0.20973248	     16.14169581	      5.05838626	     -5.57701172	      1.37521921	      0.02400210	      1.10728219	      3.89749172	     -5.84015187	    -17.14431556	     -1.68424135	      5.61175279	     20.67024951	      0.36076391	     16.92448401	      4.31117730	     -5.84015187	     -6.06607233	      4.43518916	    -10.93484211	    -12.48289018	     -7.21123895	     -2.19190021	     24.79450648	    100.97329859	      5.04435511	    -16.47283453	      6.20619544	     61.73964454	     93.40973624
      0.06000000	      3.42632242	     -3.36544418	      7.01955704	     -0.08982934	      1.01892077	     -0.20805559	     15.33991245	      5.83413606	     -4.33001395	      1.44571071	      0.02523241	     -0.96249394	      1.65525774	     -5.92153680	    -16.89733289	     -2.33697239	      4.54919283	     22.86502699	      0.39907000	     15.01813097	      4.14448231	     -5.92153680	     -5.97557601	      4.88386486	    -10.74375328	    -12.45751853	     -7.27722819	     -2.33842228	     24.68479015	    101.32009723	      4.36149372	    -16.10655104	      6.04573890	     61.09618035	     93.78970143
      0.07000000	      3.72459749	     -3.72853784	      6.85296657	     -0.07434966	      1.02027786	     -0.20639121	     14.49569100	      6.46725295	     -4.27148704	      1.74073401	      0.03038154	     -1.85012103	      1.60758785	     -5.93824303	    -16.57525724	     -3.01128126	      3.45625508	     25.33440776	      0.44216883	     12.88771333	      4.01073144	     -5.93824303	     -6.04071989	      5.28502379	    -10.56534472	    -12.40862505	     -7.32897076	     -2.36074514	     24.68595373	    101.31546877	      3.64910908	    -15.82210253	      6.06046215	     60.50316372	     93.76559982
      0.08000000	      3.97082331	     -4.13205934	      6.60232845	     -0.05900848	      1.02187888	     -0.20457290	     13.70978913	      7.14741912	     -4.07840052	      2.08071022	      0.03631524	     -2.84813451	      1.28233474	     -5.95657762	    -15.99062204	     -3.76745677	      2.20739717	     28.08842491	      0.49023550	     10.47028661	      3.89068435	     -5.95657762	     -6.04033421	      5.72878827	    -10.29076651	    -12.32152073	     -7.41365273	     -2.36774757	     24.68783400	    101.30239640	      2.92795980	    -15.47232356	      6.02903996	     59.75639894	     93.72056056
      0.09000000	      4.07001436	     -4.49865515	      6.20467159	     -0.04415228	      1.02356958	     -0.20249894	     12.97311144	      7.86594985	     -2.64149411	      2.24422744	      0.03916916	     -4.61329171	     -1.00749390	     -6.03681774	    -15.03227797	     -4.42837827	      1.12917982	     31.13908565	      0.54347957	      7.82097018	      3.40599317	     -6.03681774	     -5.95061013	      6.10831855	     -9.84129442	    -12.16038439	     -7.48657743	     -2.26568389	     24.67181481	    101.49920314	      2.30498989	    -15.11255725	      6.06966092	     58.68421850	     93.97414423
      0.10000000	      4.36925908	     -4.88068098	      5.94813239	     -0.02943660	      1.02567702	     -0.20066112	     12.07153327	      8.51190024	     -2.38115943	      2.60284300	      0.04542818	     -4.88307844	     -0.99843302	     -6.05624119	    -14.04554928	     -5.24338541	      0.13179988	     34.47076490	      0.60162834	      5.18788342	      3.27131575	     -6.05624119	     -6.10802745	      6.52978797	     -9.48486940	    -11.98549106	     -7.56786271	     -2.21427792	     24.76049516	    101.47875635	      1.60788562	    -14.72900273	      6.07544492	     57.92449546	     93.91829228
      0.11000000	      4.59462894	     -5.24052570	      5.67870013	     -0.01519389	      1.02783609	     -0.19883038	     11.20518347	      9.13656229	     -1.99129589	      2.89830150	      0.05058490	     -4.95466238	     -1.12508346	     -6.07428676	    -12.74526467	     -6.00402809	     -0.56485864	     38.05763575	      0.66423105	      2.41878750	      2.88769154	     -6.07428676	     -6.24812574	      6.92017216	     -9.09744308	    -11.72112416	     -7.64715236	     -2.10746629	     24.92203724	    101.46634042	      0.97443978	    -14.35014253	      6.09456850	     57.03924053	     93.84014606
      0.12000000	      4.63440238	     -5.47752619	      5.39384933	     -0.00157092	      1.02987502	     -0.19712893	     10.47291776	      9.63267336	     -1.13322256	      3.09494213	      0.05401693	     -5.28751894	     -1.98764434	     -6.14717295	    -11.03133267	     -6.44125527	     -0.72589917	     41.78629184	      0.72930837	     -1.20502673	      0.99199275	     -6.14717295	     -6.24957857	      7.15686573	     -8.64115983	    -11.45180877	     -7.75816795	     -1.80835281	     25.11863238	    101.66586524	      0.50357594	    -13.97015247	      6.32393428	     55.78191358	     93.99631425
      0.13000000	      5.09569391	     -5.61922143	      5.20105058	      0.01159042	      1.03236563	     -0.19550201	      9.23268966	     10.03525495	     -0.72849659	      3.22871902	      0.05635178	     -4.91669974	     -1.81388632	     -6.15717318	     -9.65204187	     -6.88499271	     -0.77022158	     45.58910944	      0.79568006	     -3.38801447	      1.04397304	     -6.15717318	     -6.86983807	      7.29136411	     -8.24932500	    -10.96941513	     -7.77943228	     -1.73676378	     25.42596103	    101.63232735	     -0.02359673	    -13.70392051	      6.33262211	     55.15425777	     93.90410696
      0.14000000	      4.82586253	     -6.02943536	      5.15569637	      0.02466919	      1.03390927	     -0.19430090	      8.71392649	     10.62002947	     -0.50644044	      3.14658112	      0.05491820	     -4.50550670	     -1.88357581	     -6.21782766	     -7.16980834	     -7.47527873	     -0.51726109	     49.52515984	      0.86437710	     -7.63188677	     -1.51315244	     -6.21782766	     -6.49841823	      7.76441407	     -8.08298906	    -10.69304726	     -7.96519366	     -1.58990201	     26.01249906	    101.84031188	     -0.56211838	    -13.22997678	      6.54917698	     53.70655991	     93.96134055
      0.15000000	      5.15718379	     -6.18770118	      5.11735862	      0.03723212	      1.03607144	     -0.19300250	      7.45338417	     10.99769942	     -0.26074740	      2.94444505	      0.05139026	     -3.97236490	     -1.63108025	     -6.22878295	     -5.38122091	     -7.85403116	     -0.20532995	     53.29690220	      0.93020642	     -9.56946215	     -1.57531948	     -6.22878295	     -6.99456107	      7.90632559	     -7.78855751	    -10.15821701	     -7.99753146	     -1.52248177	     26.47511119	    101.81928995	     -1.06318616	    -12.94949407	      6.57954961	     53.05032284	     93.86685536
      0.16000000	      4.83055248	     -6.43517048	      5.20512906	      0.04970142	      1.03736139	     -0.19218181	      6.94528380	     11.34275485	     -0.64572100	      2.73706044	      0.04777072	     -3.30633332	     -1.02770771	     -6.27990261	     -2.70155923	     -8.09944848	      0.40771897	     56.98757839	      0.99462088	    -12.83823215	     -4.23542350	     -6.27990261	     -6.62405248	      8.18232844	     -7.75739663	     -9.85455316	     -8.16961185	     -1.49882250	     27.34961505	    102.05943438	     -1.59745032	    -12.51719763	      6.74519358	     51.63410196	     93.88516420
